:SAMPLES-PER-SECOND 30
:FULLY-SPECIFIED
:DEGREES
369
root  -11.8945 33.64 10.5617 -171.278 55.377 -169.809
RightUpLeg  -5.2857 -11.1928 -21.2804
RightLeg  41.5594 -13.7167 -12.9376
RightFoot  -13.1667 0.637001 43.7426
RightToes  2.32829e-010 0 -3.6325e-017
Spine  9.46247 1.69749 -7.90319
Spine1  18.2667 -7.41722 22.7919
HEad  -24.1732 36.9997 -28.1817
LeftShoulder1  1.2463 -1.12858 -20.5075
LeftArm  7.72256 -5.287 -58.2433
LeftForeArm  141.755 -69.3357 -150.559
LeftHand  -2.77488 -6.0097 28.0558
RightShoulder  2.29479 4.07628 24.1397
RightArm  -2.27257 -41.7699 52.7987
RightForeArm  -51.3512 32.6696 9.15538
RightHand  -1.86913 3.94988 -23.176
LeftUpLeg  -38.3068 -19.1744 26.1824
LeftLeg  55.1634 -4.2824 -6.02666
LeftFoot  -24.3806 -2.50148 -22.9062
LeftToes  -5.54824e-011 -8.71001e-011 8.3852e-012
370
root  -11.6878 34.2119 10.5699 -175.172 36.644 -175.509
RightUpLeg  4.32969 -17.5614 -22.035
RightLeg  40.0592 -22.2015 -19.0366
RightFoot  -9.83959 -0.623123 42.1912
RightToes  2.32829e-010 0 -3.6325e-017
Spine  9.78568 4.69005 -1.52396
Spine1  18.2209 -0.690422 15.2496
HEad  -21.4557 25.065 -21.3803
LeftShoulder1  1.58199 -2.49487 -19.9052
LeftArm  21.0014 -12.1371 -60.116
LeftForeArm  135.858 -71.5463 -145.977
LeftHand  -2.70977 -6.13011 27.1067
RightShoulder  2.76071 5.34932 25.1281
RightArm  1.65868 -40.3373 43.119
RightForeArm  -50.0416 20.8571 8.73774
RightHand  -2.40037 5.21312 -26.073
LeftUpLeg  -44.5284 -23.5746 24.0521
LeftLeg  49.6739 -12.4639 -14.8199
LeftFoot  -19.5471 -1.63583 -24.237
LeftToes  -5.54824e-011 -8.71001e-011 8.3852e-012
371
root  -11.3247 34.8889 10.5066 -176.732 19.0992 179.134
RightUpLeg  10.8833 -20.1111 -21.7768
RightLeg  39.9787 -29.2266 -23.9032
RightFoot  -7.37134 -1.21993 32.7793
RightToes  2.32829e-010 0 -3.6325e-017
Spine  11.0188 6.63526 5.9917
Spine1  18.9496 6.32389 4.0076
HEad  -18.341 12.6435 -12.572
LeftShoulder1  1.2832 -1.87617 -17.0857
LeftArm  29.9763 -18.8861 -64.8408
LeftForeArm  129.305 -74.135 -139.161
LeftHand  -2.17912 -5.59187 23.0355
RightShoulder  3.07402 7.13579 22.8031
RightArm  -20.7125 -47.1778 34.9043
RightForeArm  -27.7788 8.75458 13.7642
RightHand  -2.85194 5.61833 -29.758
LeftUpLeg  -47.5367 -28.7117 18.8444
LeftLeg  42.5172 -20.6803 -18.8534
LeftFoot  -13.1669 -0.346103 -26.1623
LeftToes  -5.54824e-011 -8.71001e-011 8.3852e-012
372
root  -10.9529 35.4264 10.4191 -175.997 4.37777 174.034
RightUpLeg  12.7668 -17.8906 -18.6499
RightLeg  41.7304 -33.4694 -27.9661
RightFoot  -7.6171 -0.764576 20.8199
RightToes  2.32829e-010 0 -3.6325e-017
Spine  12.2978 6.73941 12.3218
Spine1  19.7733 11.6929 -8.29859
HEad  -15.0104 2.8906 -2.73846
LeftShoulder1  0.832996 -0.303006 -15.1172
LeftArm  31.7114 -19.602 -67.2382
LeftForeArm  129.78 -74.675 -137.736
LeftHand  -1.80803 -5.39948 19.6265
RightShoulder  2.22668 6.86933 14.3341
RightArm  -35.295 -53.8688 30.4206
RightForeArm  -22.8886 7.21198 8.20298
RightHand  -2.80616 5.4374 -29.7358
LeftUpLeg  -47.7944 -33.6541 12.6728
LeftLeg  33.7178 -25.7928 -17.1536
LeftFoot  -6.54912 1.14034 -26.1914
LeftToes  -5.54824e-011 -8.71001e-011 8.3852e-012
373
root  -10.8069 35.6623 10.4353 -174.579 -3.82767 170.209
RightUpLeg  11.7154 -13.3944 -15.8285
RightLeg  43.3761 -33.7333 -29.4902
RightFoot  -10.9554 -0.107887 15.1234
RightToes  2.32829e-010 0 -3.6325e-017
Spine  13.3203 5.24171 15.2017
Spine1  19.5643 14.0843 -18.6245
HEad  -9.82235 -1.5202 3.1583
LeftShoulder1  0.578822 1.04652 -17.0026
LeftArm  22.9453 -10.4703 -59.9162
LeftForeArm  139.683 -70.7812 -147.607
LeftHand  -1.90014 -5.71703 19.9786
RightShoulder  0.755909 3.33108 2.68287
RightArm  -40.2946 -43.6938 23.0202
RightForeArm  -20.8641 13.0139 4.39234
RightHand  -3.10293 6.51237 -29.8682
LeftUpLeg  -46.0288 -34.9562 7.0838
LeftLeg  26.0484 -25.4586 -12.6414
LeftFoot  -0.78348 2.238 -23.9056
LeftToes  -5.54824e-011 -8.71001e-011 8.3852e-012
374
root  -10.9415 35.7841 10.5166 -174.007 -2.70029 168.179
RightUpLeg  9.70138 -9.70082 -17.3791
RightLeg  42.475 -31.1441 -27.0853
RightFoot  -14.4125 0.365303 16.9697
RightToes  2.32829e-010 0 -3.6325e-017
Spine  14.6316 3.25025 17.4362
Spine1  17.4264 15.4864 -28.8645
HEad  -2.48543 -0.984492 1.80254
LeftShoulder1  0.608453 1.35521 -21.5703
LeftArm  8.93072 4.91263 -47.5141
LeftForeArm  146.013 -63.8292 -157.634
LeftHand  -2.06202 -5.61626 21.8337
RightShoulder  0.0594824 -0.631659 -6.62063
RightArm  -43.639 -14.5505 18.7027
RightForeArm  -14.5678 21.9254 5.38277
RightHand  -3.68512 7.67435 -32.2178
LeftUpLeg  -43.3548 -30.3925 2.8812
LeftLeg  21.4548 -21.2717 -8.63638
LeftFoot  3.05347 2.73546 -21.5334
LeftToes  -5.54824e-011 -8.71001e-011 8.3852e-012
375
root  -11.0341 35.8939 10.4871 -173.958 4.58237 166.354
RightUpLeg  6.74331 -8.86616 -22.8893
RightLeg  40.0105 -27.89 -23.0175
RightFoot  -16.3141 0.766314 20.1158
RightToes  2.32829e-010 0 -3.6325e-017
Spine  17.6346 2.5672 21.2484
Spine1  13.4576 18.6459 -40.8994
HEad  2.9772 0.426174 -2.63326
LeftShoulder1  1.0276 0.15992 -24.6083
LeftArm  1.14715 15.3127 -39.6913
LeftForeArm  144.452 -61.1972 -159.636
LeftHand  -1.97938 -4.9222 22.3197
RightShoulder  -0.0392329 -2.19281 -12.5967
RightArm  -43.5351 13.7727 15.0341
RightForeArm  -9.49363 35.3685 8.60806
RightHand  -3.84285 7.31636 -34.387
LeftUpLeg  -41.164 -21.6112 -0.691313
LeftLeg  19.3129 -18.2684 -6.64918
LeftFoot  4.3706 2.92966 -21.2051
LeftToes  -5.54824e-011 -8.71001e-011 8.3852e-012
376
root  -10.7395 35.8272 10.2828 -174.068 9.95978 163.406
RightUpLeg  4.43377 -10.4506 -28.4243
RightLeg  39.2574 -26.0563 -21.2483
RightFoot  -17.7249 1.04725 20.7635
RightToes  2.32829e-010 0 -3.6325e-017
Spine  21.6462 3.52731 23.2075
Spine1  10.5944 22.4351 -49.8741
HEad  4.65262 -0.62507 -3.65199
LeftShoulder1  1.33211 -0.985632 -23.4211
LeftArm  4.85377 15.083 -38.2567
LeftForeArm  143.151 -63.8697 -157.152
LeftHand  -1.77433 -4.48998 20.927
RightShoulder  -0.0677728 -2.52868 -18.6049
RightArm  -48.8343 29.5662 10.0733
RightForeArm  -3.39824 51.0816 14.2838
RightHand  -3.38883 6.49941 -32.4867
LeftUpLeg  -40.2098 -13.6509 -5.1688
LeftLeg  19.4404 -19.2921 -7.0947
LeftFoot  4.02839 3.00872 -22.2351
LeftToes  -5.54824e-011 -8.71001e-011 8.3852e-012
377
root  -10.1571 35.4864 9.97436 -174.399 8.58791 161.036
RightUpLeg  5.28165 -10.6587 -29.7314
RightLeg  41.8288 -27.3507 -23.9998
RightFoot  -18.9404 1.29055 21.1437
RightToes  2.32829e-010 0 -3.6325e-017
Spine  24.0863 4.63423 21.2582
Spine1  10.1049 23.6094 -50.4425
HEad  4.57978 -3.36352 -0.846537
LeftShoulder1  1.46398 -1.72506 -21.6145
LeftArm  13.0943 10.0212 -39.6435
LeftForeArm  143.516 -66.2501 -154.789
LeftHand  -1.6243 -4.54852 19.1225
RightShoulder  0.0491309 -3.85955 -22.9276
RightArm  -54.62 40.5212 11.9655
RightForeArm  2.66132 62.5593 22.2117
RightHand  -3.0278 6.14953 -30.097
LeftUpLeg  -40.5235 -10.9144 -8.92829
LeftLeg  22.6819 -21.953 -9.46271
LeftFoot  3.06881 2.94482 -23.1606
LeftToes  -5.54824e-011 -8.71001e-011 8.3852e-012
